<?xml version="1.0" encoding="utf-8"?>
<!-- Generator: Adobe Illustrator 27.6.1, SVG Export Plug-In . SVG Version: 6.00 Build 0)  -->
<svg version="1.1" id="Layer_1" xmlns="http://www.w3.org/2000/svg" xmlns:xlink="http://www.w3.org/1999/xlink" x="0px" y="0px"
	 viewBox="0 0 595.3 841.9" style="enable-background:new 0 0 595.3 841.9;" xml:space="preserve">
<style type="text/css">
	.st0{fill:#010101;}
	.st1{fill:#ECF4F7;}
	.st2{fill:#6EC27C;}
</style>
<path class="st0" d="M1078,961.1H-622.7c-60.6,0-109.7-49.1-109.7-109.7V-9.2c0-60.6,49.1-109.7,109.7-109.7H1078
	c60.6,0,109.7,49.1,109.7,109.7v860.7C1187.7,912.1,1138.6,961.1,1078,961.1z"/>
<g>
	<g>
		<g>
			<path class="st1" d="M-42.3,242.6h27.5c5.3,0,10,1,14.2,3c4.2,2,7.5,4.9,9.9,8.6c2.4,3.8,3.6,8.2,3.6,13.4c0,5.2-1.3,10-3.9,14.2
				c-2.6,4.2-6.2,7.5-10.9,9.8L20,331.9H3.9l-19.5-36.8c-0.5,0-1.3,0.1-2.4,0.1h-10.4v36.7h-14V242.6z M-16.4,283.3
				c3.1,0,5.8-0.6,8.1-1.8c2.3-1.2,4.2-2.8,5.5-4.9c1.3-2.1,2-4.6,2-7.4c0-2.9-0.7-5.3-2-7.4c-1.4-2.1-3.3-3.7-5.7-4.8
				c-2.4-1.1-5.3-1.7-8.5-1.7h-11.2v28H-16.4z"/>
			<path class="st1" d="M37.1,327.6c-4.9-2.8-8.7-6.7-11.5-11.5c-2.8-4.9-4.2-10.2-4.2-16c0-5.7,1.4-11,4.2-15.8
				c2.8-4.8,6.6-8.6,11.5-11.3c4.9-2.8,10.2-4.1,16.1-4.1c5.8,0,11.1,1.4,16,4.1c4.9,2.8,8.8,6.5,11.6,11.3c2.8,4.8,4.3,10,4.3,15.8
				c0,5.8-1.4,11.1-4.3,16c-2.9,4.9-6.7,8.7-11.6,11.6c-4.9,2.8-10.2,4.2-16,4.2C47.3,331.9,42,330.4,37.1,327.6z M62.6,317.2
				c2.9-1.8,5.2-4.2,6.9-7.3c1.7-3.1,2.5-6.4,2.5-10c0-3.6-0.9-6.8-2.6-9.7c-1.7-2.9-4-5.2-6.9-6.9c-2.9-1.7-6-2.5-9.4-2.5
				c-3.5,0-6.6,0.9-9.5,2.6c-2.8,1.7-5.1,4-6.7,7c-1.6,2.9-2.4,6.2-2.4,9.8c0,3.6,0.8,6.9,2.4,9.9c1.6,3,3.9,5.4,6.7,7.2
				c2.8,1.8,6,2.7,9.4,2.7C56.5,319.9,59.7,319,62.6,317.2z"/>
			<path class="st1" d="M141.4,322.8h-0.2c-2.4,2.9-5.2,5.1-8.5,6.7c-3.3,1.6-7,2.4-11.2,2.4c-5.5,0-10.6-1.4-15.2-4.1
				c-4.6-2.7-8.2-6.5-10.9-11.3c-2.7-4.8-4-10.2-4-16.2c0-6,1.3-11.4,4-16.2c2.7-4.8,6.4-8.6,11-11.3c4.6-2.7,9.7-4,15.3-4
				c4.1,0,7.8,0.8,11.1,2.3c3.3,1.5,6.1,3.7,8.5,6.5h0.2v-7.8h13.2v61.2h-13.2V322.8z M132.5,317.4c2.7-1.6,4.8-3.8,6.3-6.8
				c1.5-2.9,2.3-6.3,2.3-10.2c0-3.9-0.8-7.3-2.3-10.3c-1.5-3-3.6-5.3-6.3-6.9c-2.7-1.6-5.7-2.4-9.2-2.4c-3.5,0-6.7,0.8-9.5,2.5
				c-2.8,1.7-5,4-6.6,6.9c-1.6,2.9-2.4,6.3-2.4,10c0,3.6,0.8,6.9,2.3,9.9s3.7,5.3,6.6,7.1c2.8,1.7,6.1,2.6,9.7,2.6
				C126.8,319.8,129.9,319,132.5,317.4z"/>
			<path class="st1" d="M214.6,330.9v-8.3h-0.3c-2.3,2.9-5.2,5.2-8.5,6.8c-3.3,1.6-7.1,2.4-11.3,2.4c-5.5,0-10.6-1.4-15.2-4.1
				c-4.6-2.7-8.2-6.5-10.9-11.3c-2.7-4.8-4-10.2-4-16.2c0-6,1.3-11.4,4-16.2c2.7-4.8,6.4-8.6,11-11.3c4.6-2.7,9.7-4,15.3-4
				c4,0,7.6,0.7,10.8,2.2c3.3,1.5,6,3.5,8.3,6.2h0.2v-396h13.5v449.8H214.6z M205.6,317.4c2.7-1.6,4.8-3.8,6.3-6.8
				c1.5-2.9,2.3-6.3,2.3-10.2c0-3.9-0.8-7.3-2.3-10.3c-1.5-3-3.6-5.3-6.3-6.9c-2.7-1.6-5.7-2.4-9.2-2.4c-3.5,0-6.7,0.8-9.5,2.5
				c-2.8,1.7-5,4-6.6,6.9c-1.6,2.9-2.4,6.3-2.4,10c0,3.6,0.8,6.9,2.3,9.9c1.5,3,3.7,5.3,6.6,7.1c2.8,1.7,6.1,2.6,9.7,2.6
				C200,319.8,203,319,205.6,317.4z"/>
		</g>
		<path class="st2" d="M284.7,318.3h27.2V294h-21.6v-13.5h35.1v51.4h-45.4c-12.3,0-22.3-10-22.3-22.3v-44.6
			c0-12.3,10-22.3,22.3-22.3h45.4v13.5h-40.8c-7.4,0-13.4,6-13.4,13.4v35.4C271.3,312.3,277.3,318.3,284.7,318.3z"/>
		<path class="st2" d="M342.5,256v62.5c0,7.4,6,13.4,13.4,13.4h128.4c7.4,0,13.4-6,13.4-13.4V256c0-7.4-6-13.4-13.4-13.4H355.9
			C348.5,242.6,342.5,248.6,342.5,256z M484.1,318.3H356v-62.2h128.1V318.3z"/>
		
			<rect x="413.3" y="260.4" transform="matrix(-1.836970e-16 1 -1 -1.836970e-16 707.2729 -132.8646)" class="st2" width="13.5" height="53.6"/>
	</g>
	<g>
		<g>
			<path class="st1" d="M-42.3,331.9h27.5c5.3,0,10,1,14.2,3c4.2,2,7.5,4.9,9.9,8.6c2.4,3.8,3.6,8.2,3.6,13.4c0,5.2-1.3,10-3.9,14.2
				c-2.6,4.2-6.2,7.5-10.9,9.8L20,421.1H3.9l-19.5-36.8c-0.5,0-1.3,0.1-2.4,0.1h-10.4v36.7h-14V331.9z M-16.4,372.6
				c3.1,0,5.8-0.6,8.1-1.8c2.3-1.2,4.2-2.8,5.5-4.9c1.3-2.1,2-4.6,2-7.4c0-2.9-0.7-5.3-2-7.4c-1.4-2.1-3.3-3.7-5.7-4.8
				c-2.4-1.1-5.3-1.7-8.5-1.7h-11.2v28H-16.4z"/>
			<path class="st1" d="M37.1,416.9c-4.9-2.8-8.7-6.7-11.5-11.5c-2.8-4.9-4.2-10.2-4.2-16c0-5.7,1.4-11,4.2-15.8
				c2.8-4.8,6.6-8.6,11.5-11.3c4.9-2.8,10.2-4.1,16.1-4.1c5.8,0,11.1,1.4,16,4.1c4.9,2.8,8.8,6.5,11.6,11.3c2.8,4.8,4.3,10,4.3,15.8
				c0,5.8-1.4,11.1-4.3,16c-2.9,4.9-6.7,8.7-11.6,11.6c-4.9,2.8-10.2,4.2-16,4.2C47.3,421.1,42,419.7,37.1,416.9z M62.6,406.5
				c2.9-1.8,5.2-4.2,6.9-7.3c1.7-3.1,2.5-6.4,2.5-10c0-3.6-0.9-6.8-2.6-9.7c-1.7-2.9-4-5.2-6.9-6.9c-2.9-1.7-6-2.5-9.4-2.5
				c-3.5,0-6.6,0.9-9.5,2.6c-2.8,1.7-5.1,4-6.7,7c-1.6,2.9-2.4,6.2-2.4,9.8c0,3.6,0.8,6.9,2.4,9.9c1.6,3,3.9,5.4,6.7,7.2
				c2.8,1.8,6,2.7,9.4,2.7C56.5,409.2,59.7,408.3,62.6,406.5z"/>
			<path class="st1" d="M141.4,412.1h-0.2c-2.4,2.9-5.2,5.1-8.5,6.7c-3.3,1.6-7,2.4-11.2,2.4c-5.5,0-10.6-1.4-15.2-4.1
				c-4.6-2.7-8.2-6.5-10.9-11.3c-2.7-4.8-4-10.2-4-16.2c0-6,1.3-11.4,4-16.2c2.7-4.8,6.4-8.6,11-11.3c4.6-2.7,9.7-4,15.3-4
				c4.1,0,7.8,0.8,11.1,2.3c3.3,1.5,6.1,3.7,8.5,6.5h0.2v-7.8h13.2v61.2h-13.2V412.1z M132.5,406.7c2.7-1.6,4.8-3.8,6.3-6.8
				c1.5-2.9,2.3-6.3,2.3-10.2c0-3.9-0.8-7.3-2.3-10.3c-1.5-3-3.6-5.3-6.3-6.9c-2.7-1.6-5.7-2.4-9.2-2.4c-3.5,0-6.7,0.8-9.5,2.5
				c-2.8,1.7-5,4-6.6,6.9c-1.6,2.9-2.4,6.3-2.4,10c0,3.6,0.8,6.9,2.3,9.9s3.7,5.3,6.6,7.1c2.8,1.7,6.1,2.6,9.7,2.6
				C126.8,409.1,129.9,408.3,132.5,406.7z"/>
			<path class="st1" d="M214.6,420.2V412h-0.3c-2.3,2.9-5.2,5.2-8.5,6.8c-3.3,1.6-7.1,2.4-11.3,2.4c-5.5,0-10.6-1.4-15.2-4.1
				c-4.6-2.7-8.2-6.5-10.9-11.3c-2.7-4.8-4-10.2-4-16.2c0-6,1.3-11.4,4-16.2c2.7-4.8,6.4-8.6,11-11.3c4.6-2.7,9.7-4,15.3-4
				c4,0,7.6,0.7,10.8,2.2c3.3,1.5,6,3.5,8.3,6.2h0.2v-34.5h13.5v88.4H214.6z M205.6,406.7c2.7-1.6,4.8-3.8,6.3-6.8
				c1.5-2.9,2.3-6.3,2.3-10.2c0-3.9-0.8-7.3-2.3-10.3c-1.5-3-3.6-5.3-6.3-6.9c-2.7-1.6-5.7-2.4-9.2-2.4c-3.5,0-6.7,0.8-9.5,2.5
				c-2.8,1.7-5,4-6.6,6.9c-1.6,2.9-2.4,6.3-2.4,10c0,3.6,0.8,6.9,2.3,9.9c1.5,3,3.7,5.3,6.6,7.1c2.8,1.7,6.1,2.6,9.7,2.6
				C200,409.1,203,408.3,205.6,406.7z"/>
		</g>
		<path class="st2" d="M284.7,407.6h27.2v-24.3h-21.6v-13.5h35.1v51.4h-45.4c-12.3,0-22.3-10-22.3-22.3v-44.6
			c0-12.3,10-22.3,22.3-22.3h45.4v13.5h-40.8c-7.4,0-13.4,6-13.4,13.4v35.4C271.3,401.6,277.3,407.6,284.7,407.6z"/>
		<path class="st2" d="M342.5,345.2v62.5c0,7.4,6,13.4,13.4,13.4h128.4c7.4,0,13.4-6,13.4-13.4v-62.5c0-7.4-6-13.4-13.4-13.4H355.9
			C348.5,331.9,342.5,337.8,342.5,345.2z M484.1,407.6H356v-62.2h128.1V407.6z"/>
		
			<rect x="413.3" y="349.7" transform="matrix(-1.836970e-16 1 -1 -1.836970e-16 796.5695 -43.5681)" class="st2" width="13.5" height="53.6"/>
	</g>
	<g>
		<g>
			<path class="st1" d="M-42.3,421.1h27.5c5.3,0,10,1,14.2,3c4.2,2,7.5,4.9,9.9,8.6c2.4,3.8,3.6,8.2,3.6,13.4c0,5.2-1.3,10-3.9,14.2
				c-2.6,4.2-6.2,7.5-10.9,9.8L20,510.4H3.9l-19.5-36.8c-0.5,0-1.3,0.1-2.4,0.1h-10.4v36.7h-14V421.1z M-16.4,461.9
				c3.1,0,5.8-0.6,8.1-1.8c2.3-1.2,4.2-2.8,5.5-4.9c1.3-2.1,2-4.6,2-7.4c0-2.9-0.7-5.3-2-7.4c-1.4-2.1-3.3-3.7-5.7-4.8
				c-2.4-1.1-5.3-1.7-8.5-1.7h-11.2v28H-16.4z"/>
			<path class="st1" d="M37.1,506.2c-4.9-2.8-8.7-6.7-11.5-11.5c-2.8-4.9-4.2-10.2-4.2-16c0-5.7,1.4-11,4.2-15.8
				c2.8-4.8,6.6-8.6,11.5-11.3c4.9-2.8,10.2-4.1,16.1-4.1c5.8,0,11.1,1.4,16,4.1c4.9,2.8,8.8,6.5,11.6,11.3c2.8,4.8,4.3,10,4.3,15.8
				c0,5.8-1.4,11.1-4.3,16c-2.9,4.9-6.7,8.7-11.6,11.6c-4.9,2.8-10.2,4.2-16,4.2C47.3,510.4,42,509,37.1,506.2z M62.6,495.8
				c2.9-1.8,5.2-4.2,6.9-7.3c1.7-3.1,2.5-6.4,2.5-10c0-3.6-0.9-6.8-2.6-9.7c-1.7-2.9-4-5.2-6.9-6.9c-2.9-1.7-6-2.5-9.4-2.5
				c-3.5,0-6.6,0.9-9.5,2.6c-2.8,1.7-5.1,4-6.7,7c-1.6,2.9-2.4,6.2-2.4,9.8c0,3.6,0.8,6.9,2.4,9.9c1.6,3,3.9,5.4,6.7,7.2
				c2.8,1.8,6,2.7,9.4,2.7C56.5,498.5,59.7,497.6,62.6,495.8z"/>
			<path class="st1" d="M141.4,501.4h-0.2c-2.4,2.9-5.2,5.1-8.5,6.7c-3.3,1.6-7,2.4-11.2,2.4c-5.5,0-10.6-1.4-15.2-4.1
				c-4.6-2.7-8.2-6.5-10.9-11.3c-2.7-4.8-4-10.2-4-16.2c0-6,1.3-11.4,4-16.2c2.7-4.8,6.4-8.6,11-11.3c4.6-2.7,9.7-4,15.3-4
				c4.1,0,7.8,0.8,11.1,2.3c3.3,1.5,6.1,3.7,8.5,6.5h0.2v-7.8h13.2v61.2h-13.2V501.4z M132.5,496c2.7-1.6,4.8-3.8,6.3-6.8
				c1.5-2.9,2.3-6.3,2.3-10.2c0-3.9-0.8-7.3-2.3-10.3c-1.5-3-3.6-5.3-6.3-6.9c-2.7-1.6-5.7-2.4-9.2-2.4c-3.5,0-6.7,0.8-9.5,2.5
				c-2.8,1.7-5,4-6.6,6.9c-1.6,2.9-2.4,6.3-2.4,10c0,3.6,0.8,6.9,2.3,9.9c1.5,3,3.7,5.3,6.6,7.1c2.8,1.7,6.1,2.6,9.7,2.6
				C126.8,498.4,129.9,497.6,132.5,496z"/>
			<path class="st1" d="M214.6,509.5v-8.3h-0.3c-2.3,2.9-5.2,5.2-8.5,6.8c-3.3,1.6-7.1,2.4-11.3,2.4c-5.5,0-10.6-1.4-15.2-4.1
				c-4.6-2.7-8.2-6.5-10.9-11.3c-2.7-4.8-4-10.2-4-16.2c0-6,1.3-11.4,4-16.2c2.7-4.8,6.4-8.6,11-11.3c4.6-2.7,9.7-4,15.3-4
				c4,0,7.6,0.7,10.8,2.2c3.3,1.5,6,3.5,8.3,6.2h0.2v-34.5h13.5v88.4H214.6z M205.6,496c2.7-1.6,4.8-3.8,6.3-6.8
				c1.5-2.9,2.3-6.3,2.3-10.2c0-3.9-0.8-7.3-2.3-10.3c-1.5-3-3.6-5.3-6.3-6.9c-2.7-1.6-5.7-2.4-9.2-2.4c-3.5,0-6.7,0.8-9.5,2.5
				c-2.8,1.7-5,4-6.6,6.9c-1.6,2.9-2.4,6.3-2.4,10c0,3.6,0.8,6.9,2.3,9.9c1.5,3,3.7,5.3,6.6,7.1c2.8,1.7,6.1,2.6,9.7,2.6
				C200,498.4,203,497.6,205.6,496z"/>
		</g>
		<path class="st2" d="M284.7,496.9h27.2v-24.3h-21.6V459h35.1v51.4h-45.4c-12.3,0-22.3-10-22.3-22.3v-44.6
			c0-12.3,10-22.3,22.3-22.3h45.4v13.5h-40.8c-7.4,0-13.4,6-13.4,13.4v35.4C271.3,490.9,277.3,496.9,284.7,496.9z"/>
		<path class="st2" d="M342.5,434.5v62.5c0,7.4,6,13.4,13.4,13.4h128.4c7.4,0,13.4-6,13.4-13.4v-62.5c0-7.4-6-13.4-13.4-13.4H355.9
			C348.5,421.1,342.5,427.1,342.5,434.5z M484.1,496.9H356v-62.2h128.1V496.9z"/>
		
			<rect x="413.3" y="439" transform="matrix(-1.836970e-16 1 -1 -1.836970e-16 885.866 45.7284)" class="st2" width="13.5" height="53.6"/>
	</g>
	<g>
		<g>
			<path class="st1" d="M-42.3,510.4h27.5c5.3,0,10,1,14.2,3c4.2,2,7.5,4.9,9.9,8.6c2.4,3.8,3.6,8.2,3.6,13.4c0,5.2-1.3,10-3.9,14.2
				c-2.6,4.2-6.2,7.5-10.9,9.8L20,599.7H3.9L-15.5,563c-0.5,0-1.3,0.1-2.4,0.1h-10.4v398.1h-14V510.4z M-16.4,551.2
				c3.1,0,5.8-0.6,8.1-1.8c2.3-1.2,4.2-2.8,5.5-4.9c1.3-2.1,2-4.6,2-7.4c0-2.9-0.7-5.3-2-7.4c-1.4-2.1-3.3-3.7-5.7-4.8
				c-2.4-1.1-5.3-1.7-8.5-1.7h-11.2v28H-16.4z"/>
			<path class="st1" d="M37.1,595.5c-4.9-2.8-8.7-6.7-11.5-11.5c-2.8-4.9-4.2-10.2-4.2-16c0-5.7,1.4-11,4.2-15.8
				c2.8-4.8,6.6-8.6,11.5-11.3c4.9-2.8,10.2-4.1,16.1-4.1c5.8,0,11.1,1.4,16,4.1c4.9,2.8,8.8,6.5,11.6,11.3c2.8,4.8,4.3,10,4.3,15.8
				c0,5.8-1.4,11.1-4.3,16c-2.9,4.9-6.7,8.7-11.6,11.6c-4.9,2.8-10.2,4.2-16,4.2C47.3,599.7,42,598.3,37.1,595.5z M62.6,585.1
				c2.9-1.8,5.2-4.2,6.9-7.3c1.7-3.1,2.5-6.4,2.5-10c0-3.6-0.9-6.8-2.6-9.7c-1.7-2.9-4-5.2-6.9-6.9c-2.9-1.7-6-2.5-9.4-2.5
				c-3.5,0-6.6,0.9-9.5,2.6c-2.8,1.7-5.1,4-6.7,7c-1.6,2.9-2.4,6.2-2.4,9.8c0,3.6,0.8,6.9,2.4,9.9c1.6,3,3.9,5.4,6.7,7.2
				c2.8,1.8,6,2.7,9.4,2.7C56.5,587.8,59.7,586.9,62.6,585.1z"/>
			<path class="st1" d="M141.4,590.7h-0.2c-2.4,2.9-5.2,5.1-8.5,6.7c-3.3,1.6-7,2.4-11.2,2.4c-5.5,0-10.6-1.4-15.2-4.1
				c-4.6-2.7-8.2-6.5-10.9-11.3c-2.7-4.8-4-10.2-4-16.2c0-6,1.3-11.4,4-16.2c2.7-4.8,6.4-8.6,11-11.3c4.6-2.7,9.7-4,15.3-4
				c4.1,0,7.8,0.8,11.1,2.3c3.3,1.5,6.1,3.7,8.5,6.5h0.2v-7.8h13.2v61.2h-13.2V590.7z M132.5,585.3c2.7-1.6,4.8-3.8,6.3-6.8
				c1.5-2.9,2.3-6.3,2.3-10.2c0-3.9-0.8-7.3-2.3-10.3c-1.5-3-3.6-5.3-6.3-6.9c-2.7-1.6-5.7-2.4-9.2-2.4c-3.5,0-6.7,0.8-9.5,2.5
				c-2.8,1.7-5,4-6.6,6.9c-1.6,2.9-2.4,6.3-2.4,10c0,3.6,0.8,6.9,2.3,9.9s3.7,5.3,6.6,7.1c2.8,1.7,6.1,2.6,9.7,2.6
				C126.8,587.7,129.9,586.9,132.5,585.3z"/>
			<path class="st1" d="M214.6,598.8v-8.3h-0.3c-2.3,2.9-5.2,5.2-8.5,6.8c-3.3,1.6-7.1,2.4-11.3,2.4c-5.5,0-10.6-1.4-15.2-4.1
				c-4.6-2.7-8.2-6.5-10.9-11.3c-2.7-4.8-4-10.2-4-16.2c0-6,1.3-11.4,4-16.2c2.7-4.8,6.4-8.6,11-11.3c4.6-2.7,9.7-4,15.3-4
				c4,0,7.6,0.7,10.8,2.2c3.3,1.5,6,3.5,8.3,6.2h0.2v-34.5h13.5v88.4H214.6z M205.6,585.3c2.7-1.6,4.8-3.8,6.3-6.8
				c1.5-2.9,2.3-6.3,2.3-10.2c0-3.9-0.8-7.3-2.3-10.3c-1.5-3-3.6-5.3-6.3-6.9c-2.7-1.6-5.7-2.4-9.2-2.4c-3.5,0-6.7,0.8-9.5,2.5
				c-2.8,1.7-5,4-6.6,6.9c-1.6,2.9-2.4,6.3-2.4,10c0,3.6,0.8,6.9,2.3,9.9c1.5,3,3.7,5.3,6.6,7.1c2.8,1.7,6.1,2.6,9.7,2.6
				C200,587.7,203,586.9,205.6,585.3z"/>
		</g>
		<path class="st2" d="M284.7,586.2h27.2v-24.3h-21.6v-13.5h35.1v51.4h-45.4c-12.3,0-22.3-10-22.3-22.3v-44.6
			c0-12.3,10-22.3,22.3-22.3h45.4V524h-40.8c-7.4,0-13.4,6-13.4,13.4v35.4C271.3,580.2,277.3,586.2,284.7,586.2z"/>
		<path class="st2" d="M342.5,523.8v62.5c0,7.4,6,13.4,13.4,13.4h128.4c7.4,0,13.4-6,13.4-13.4v-62.5c0-7.4-6-13.4-13.4-13.4H355.9
			C348.5,510.4,342.5,516.4,342.5,523.8z M484.1,586.2H356V524h128.1V586.2z"/>
		
			<rect x="413.3" y="528.3" transform="matrix(-1.836970e-16 1 -1 -1.836970e-16 975.1625 135.0249)" class="st2" width="13.5" height="53.6"/>
	</g>
</g>
</svg>
